# xmcd CD database file
#
# Track frame offsets:
#	150
#	13604
#	35273
#	56762
#	73968
#	92244
#	106984
#	119147
#	139133
#	156992
#	175403
#	188830
#	211630
#	233536
#	251230
#	269533
#
# Disc length: 3924 seconds
#
# Revision: 0
# Processed by: cddbd v1.5.1PL2 Copyright (c) Steve Scherf et al.
# Submitted via: CDex 1.51
#
DISCID=ed0f5210
DTITLE=Bush Y Su Nuevo Sonido - 	lo Mejor De Bush Y Su Nuevo Sonido Vol.2	
DYEAR=1900
DGENRE=Salsa
TTITLE0=Bilongo
TTITLE1=El Palomo
TTITLE2=A Chiricano
TTITLE3=El Gozador
TTITLE4=Vive Tu Vida
TTITLE5=Para Los Barrios
TTITLE6=El Quedao
TTITLE7=El Reloj De Pastora
TTITLE8=El Era Mas Feo Que Yo
TTITLE9=Paso A La Rumba
TTITLE10=Nananina
TTITLE11=Dejame Mujer
TTITLE12=Dejame
TTITLE13=Happy Mambo
TTITLE14=Lo Agarro Yo
TTITLE15=Soy Tu Dueno
EXTD=
EXTT0=
EXTT1=
EXTT2=
EXTT3=
EXTT4=
EXTT5=
EXTT6=
EXTT7=
EXTT8=
EXTT9=
EXTT10=
EXTT11=
EXTT12=
EXTT13=
EXTT14=
EXTT15=
PLAYORDER=
